<svg version="1.2" xmlns="http://www.w3.org/2000/svg" viewBox="0 0 1147 299" width="1147" height="299">
	<title>logo-blue-svg</title>
	<style>
		.s0 { fill: #031863 } 
		.s1 { fill: #0730c5 } 
		.s2 { fill: #ff006c } 
		.s3 { fill: #ffffff } 
	</style>
	<g id="Layer_2">
		<g id="Layer_1-2">
			<path id="Layer" class="s0" d="m276.4 0v298.1c39.3-0.3 76.9-16.2 104.6-44.1 27.7-27.9 43.2-65.6 43.2-104.9 0-39.4-15.5-77.1-43.2-105-27.7-27.9-65.3-43.8-104.6-44.1z"/>
			<path id="Layer" class="s1" d="m127.6 42.4v213c27.8-0.5 54.4-12 73.9-31.9 19.6-19.9 30.5-46.7 30.5-74.6 0-27.9-10.9-54.7-30.5-74.6-19.5-19.9-46.1-31.3-73.9-31.9z"/>
			<path id="Layer" class="s2" d="m42.5 192c-23.5 0-42.5-19-42.5-42.6 0-23.5 19-42.5 42.5-42.5 23.5 0 42.6 19 42.6 42.5 0 23.6-19.1 42.6-42.6 42.6z"/>
			<path id="Layer" fill-rule="evenodd" class="s3" d="m520.8 246.7v-184.8h77q20.8 0 34.8 5.9 14 5.9 21.1 16.4 1.8 2.7 3.2 5.6 1.3 3 2.2 6.1 0.9 3.1 1.3 6.3 0.5 3.2 0.4 6.5c0.1 3.1-0.2 6.3-0.9 9.4-0.7 3.1-1.8 6.1-3.3 8.9-1.4 2.8-3.2 5.5-5.3 7.8-2.1 2.4-4.5 4.5-7.1 6.3q-2 1.4-4.2 2.6-2.1 1.2-4.4 2.1-2.3 1-4.6 1.7-2.4 0.7-4.8 1.2v1.8q2.7 0.1 5.4 0.6 2.7 0.4 5.3 1.2 2.6 0.7 5.1 1.8 2.5 1.1 4.9 2.5 2.4 1.3 4.5 3 2.2 1.7 4.2 3.6 1.9 1.9 3.6 4.1 1.6 2.2 3 4.5 5.8 9.8 5.8 23.2 0 3.5-0.4 7-0.5 3.4-1.5 6.8-0.9 3.4-2.4 6.6-1.4 3.2-3.3 6.1-7.6 11.7-21.9 18.4-14.4 6.8-34.8 6.8zm44.6-108.8h24.7q1.7 0 3.3-0.1 1.7-0.2 3.3-0.5 1.7-0.3 3.3-0.8 1.6-0.4 3.1-1.1 1.3-0.5 2.6-1.2 1.2-0.7 2.4-1.6 1.1-0.9 2.1-2 1-1 1.8-2.2 0.8-1.2 1.4-2.5 0.7-1.3 1.1-2.8 0.4-1.4 0.6-2.8 0.1-1.5 0.1-2.9 0-9.3-6.6-14.7-6.6-5.3-17.7-5.3h-25.5zm0 72.8h27.6q14.5 0 21.4-5.5 6.9-5.5 6.9-15.3 0.1-1.6-0.1-3.3-0.2-1.6-0.6-3.1-0.5-1.6-1.1-3.1-0.7-1.5-1.5-2.8-0.9-1.4-1.9-2.5-1.1-1.2-2.3-2.2-1.2-1-2.5-1.9-1.3-0.8-2.8-1.4-1.7-0.8-3.5-1.3-1.8-0.6-3.7-1-1.8-0.3-3.7-0.5-1.9-0.1-3.8-0.1h-28.4z"/>
			<path id="Layer" class="s3" d="m778.9 186.8v-78.7h44v138.6h-42v-25.8h-1.5q-1 3-2.6 5.9-1.5 2.8-3.5 5.4-2 2.6-4.4 4.8-2.4 2.2-5.1 4-11 7.4-26.7 7.4-14.1 0-24.9-6.5-2.6-1.6-5.1-3.6-2.4-2-4.5-4.3-2.1-2.3-3.9-4.8-1.8-2.6-3.1-5.4-6-11.7-6-27.4v-88.3h44.1v79.6q0.1 11.3 6 17.8 5.9 6.5 16 6.5 1.5 0 3.1-0.2 1.5-0.1 3-0.5 1.5-0.4 2.9-0.9 1.5-0.6 2.8-1.3 1.4-0.8 2.6-1.7 1.2-0.9 2.2-2 1.1-1.1 2-2.3 0.9-1.3 1.6-2.6 0.8-1.6 1.4-3.2 0.6-1.7 1-3.4 0.4-1.8 0.5-3.5 0.2-1.8 0.1-3.5z"/>
			<path id="Layer" class="s3" d="m895.1 167.6v79h-44.1v-184.7h42.7v71.7h1.5q1.1-3.1 2.6-5.9 1.5-2.8 3.5-5.4 1.9-2.5 4.3-4.7 2.3-2.2 5-4 10.7-7.3 26.2-7.3 14.6 0 25.4 6.5 2.7 1.6 5.1 3.6 2.5 1.9 4.6 4.3 2.1 2.3 3.9 4.8 1.8 2.6 3.2 5.4 6 11.8 5.9 27.5v88.3h-44.1v-79.7q0.1-11.6-5.8-18-5.8-6.4-16.5-6.5-1.6 0-3.2 0.1-1.5 0.2-3.1 0.6-1.5 0.4-3 1-1.5 0.5-2.9 1.3-1.3 0.8-2.5 1.7-1.2 0.9-2.2 2-1.1 1.1-2 2.3-0.8 1.3-1.5 2.6-0.8 1.6-1.4 3.2-0.5 1.7-0.9 3.4-0.4 1.7-0.6 3.4-0.2 1.8-0.1 3.5z"/>
			<path id="Layer" fill-rule="evenodd" class="s3" d="m1077 249.3q-21.8 0-37.5-9-3.8-2.2-7.3-4.9-3.5-2.7-6.5-5.9-3.1-3.2-5.7-6.8-2.5-3.6-4.6-7.5-8.4-16.1-8.4-37.4 0-21.3 8.4-37.5 2.1-3.9 4.6-7.5 2.6-3.6 5.7-6.8 3-3.2 6.5-5.9 3.5-2.7 7.3-4.8 15.7-9 37.5-9 21.8 0 37.5 9 3.8 2.1 7.3 4.8 3.5 2.7 6.6 5.9 3 3.2 5.6 6.8 2.5 3.6 4.6 7.5 8.4 16.1 8.4 37.5 0 21.4-8.4 37.4-2.1 3.9-4.6 7.5-2.6 3.6-5.7 6.8-3 3.2-6.5 5.9-3.5 2.7-7.3 4.9-15.7 9-37.5 9zm0.3-33.3q1.8 0 3.6-0.3 1.8-0.3 3.6-0.9 1.7-0.6 3.3-1.5 1.5-1 2.9-2.2 5.5-4.9 8.5-13.5 0.7-2.4 1.3-4.9 0.6-2.5 0.9-5 0.4-2.5 0.6-5 0.1-2.6 0.1-5.1 0-2.6-0.1-5.1-0.2-2.6-0.6-5.1-0.3-2.6-0.9-5.1-0.6-2.5-1.3-4.9-3-8.7-8.5-13.5-1.4-1.3-2.9-2.2-1.6-0.9-3.3-1.5-1.8-0.7-3.6-1-1.8-0.3-3.6-0.2-1.9-0.1-3.8 0.2-1.8 0.3-3.6 0.9-1.8 0.7-3.4 1.6-1.6 0.9-3.1 2.2-1.5 1.3-2.8 2.9-1.3 1.5-2.4 3.2-1.1 1.8-1.9 3.6-0.8 1.8-1.4 3.8-0.8 2.4-1.4 4.9-0.6 2.5-0.9 5.1-0.4 2.5-0.6 5.1-0.1 2.5-0.1 5.1 0 2.5 0.1 5.1 0.2 2.5 0.6 5 0.3 2.5 0.9 5 0.6 2.5 1.4 4.9 0.6 1.9 1.4 3.8 0.8 1.8 1.9 3.5 1.1 1.7 2.4 3.3 1.3 1.6 2.8 2.9 1.5 1.2 3.1 2.2 1.6 0.9 3.4 1.5 1.8 0.7 3.6 1 1.9 0.3 3.8 0.2z"/>
		</g>
	</g>
</svg>